<?xml version="1.0" standalone="no"?>
<!DOCTYPE svg PUBLIC "-//W3C//DTD SVG 20010904//EN"
 "http://www.w3.org/TR/2001/REC-SVG-20010904/DTD/svg10.dtd">
<svg version="1.0" xmlns="http://www.w3.org/2000/svg"
 width="1116.000000pt" height="233.000000pt" viewBox="0 0 1116.000000 233.000000"
 preserveAspectRatio="xMidYMid meet">

<g transform="translate(0.000000,233.000000) scale(0.100000,-0.100000)"
fill="#000000" stroke="none">
<path d="M424 2136 c-17 -13 -20 -31 -24 -158 l-5 -143 -115 -5 -115 -5 -3
-72 -3 -73 -34 0 c-61 0 -65 -13 -65 -190 0 -177 4 -190 65 -190 l34 0 3 -72
3 -73 115 -5 115 -5 3 -112 3 -112 -26 -7 c-50 -12 -55 -33 -55 -230 0 -148 3
-184 15 -194 13 -11 13 -15 0 -33 -11 -15 -15 -48 -15 -110 0 -80 2 -90 25
-112 15 -16 36 -25 55 -25 l30 0 0 -61 c0 -73 10 -93 51 -108 42 -14 287 -14
328 0 39 14 51 41 51 115 l0 54 450 0 450 0 0 -54 c0 -74 12 -101 51 -115 41
-14 286 -14 328 0 41 15 51 35 51 108 l0 61 30 0 c19 0 40 9 55 25 23 22 25
32 25 112 0 62 -4 95 -15 110 -13 18 -13 22 0 33 12 10 15 46 15 194 0 197 -5
218 -55 230 l-26 7 3 112 3 112 115 5 115 5 3 73 3 72 34 0 c61 0 65 13 65
190 0 177 -4 190 -65 190 l-34 0 -3 73 -3 72 -115 5 -115 5 -5 143 c-4 127 -7
145 -24 158 -29 21 -1743 21 -1772 0z m1644 -413 l-3 -278 -755 0 -755 0 -3
278 -2 277 760 0 760 0 -2 -277z m-1668 -233 l0 -290 -95 0 -95 0 0 50 c0 50
0 50 33 50 18 0 42 6 53 14 17 13 19 28 19 176 0 148 -2 163 -19 176 -11 8
-35 14 -53 14 -33 0 -33 0 -33 50 l0 50 95 0 95 0 0 -290z m2010 240 c0 -50 0
-50 -33 -50 -18 0 -42 -6 -53 -14 -17 -13 -19 -28 -19 -176 0 -148 2 -163 19
-176 11 -8 35 -14 53 -14 33 0 33 0 33 -50 l0 -50 -95 0 -95 0 0 290 0 290 95
0 95 0 0 -50z m-692 -882 l3 -58 -411 0 -410 0 0 53 c0 30 3 57 7 60 4 4 187
6 407 5 l401 -3 3 -57z m2 -178 l0 -60 -410 0 -410 0 0 60 0 60 410 0 410 0 0
-60z"/>
<path d="M8020 1160 l0 -930 175 0 175 0 0 198 0 198 64 63 64 64 54 -84 c30
-46 105 -164 167 -262 l114 -177 199 0 c157 0 198 3 192 12 -4 7 -117 175
-250 374 -134 198 -244 365 -246 371 -2 6 94 122 212 258 118 137 223 259 233
272 l18 23 -208 0 -208 0 -155 -182 c-85 -100 -176 -209 -202 -241 l-48 -60 0
517 0 516 -175 0 -175 0 0 -930z"/>
<path d="M2900 1845 l0 -145 268 -2 267 -3 3 -732 2 -733 180 0 180 0 0 735 0
735 270 0 270 0 0 145 0 145 -720 0 -720 0 0 -145z"/>
<path d="M4965 1542 c-63 -22 -114 -61 -151 -114 -23 -32 -29 -37 -31 -22 -1
10 -5 45 -8 77 l-6 57 -165 0 -164 0 0 -655 0 -655 175 0 175 0 0 425 c0 469
-1 460 62 509 55 41 139 60 240 53 l88 -6 0 168 0 169 -31 6 c-55 11 -133 6
-184 -12z"/>
<path d="M7120 1544 c-161 -35 -295 -142 -368 -294 -55 -116 -72 -201 -72
-360 0 -166 19 -259 75 -376 35 -73 57 -103 113 -156 112 -105 227 -148 398
-148 171 0 305 47 409 141 68 63 132 184 141 272 l7 57 -165 0 -165 0 -6 -36
c-28 -170 -302 -212 -400 -62 -46 71 -52 108 -52 308 0 169 2 190 23 242 47
116 161 172 285 137 75 -21 146 -111 147 -186 l0 -33 166 0 167 0 -6 63 c-21
224 -180 394 -411 438 -69 13 -210 10 -286 -7z"/>
<path d="M9866 1543 c-38 -11 -66 -31 -118 -83 l-68 -68 0 62 c0 33 -4 67 -8
74 -7 9 -47 12 -168 10 l-159 -3 -3 -653 -2 -652 175 0 175 0 0 428 0 427 25
37 c15 23 46 47 82 65 53 26 67 28 171 28 l112 0 0 166 0 167 -31 6 c-52 10
-131 6 -183 -11z"/>
<path d="M5340 1062 c0 -448 1 -484 20 -558 35 -135 113 -225 234 -270 40 -15
78 -19 181 -19 126 0 132 1 200 33 39 18 89 52 113 75 l42 41 0 -36 c0 -19 3
-50 6 -67 l7 -31 163 0 164 0 0 655 0 655 -175 0 -175 0 0 -466 0 -467 -43
-42 c-55 -55 -132 -80 -225 -72 -68 5 -100 22 -136 71 -20 27 -21 42 -26 499
l-5 472 -172 3 -173 2 0 -478z"/>
</g>
</svg>
